<?xml version="1.0" encoding="UTF-8"?>
<svg width="35px" height="37px" viewBox="0 0 35 37" version="1.1" xmlns="http://www.w3.org/2000/svg" xmlns:xlink="http://www.w3.org/1999/xlink">
    <title>dog-house</title>
    <defs>
        <filter id="filter-1">
            <feColorMatrix in="SourceGraphic" type="matrix" values="0 0 0 0 1.000000 0 0 0 0 1.000000 0 0 0 0 1.000000 0 0 0 1.000000 0"></feColorMatrix>
        </filter>
    </defs>
    <g id="Page-1" stroke="none" stroke-width="1" fill="none" fill-rule="evenodd">
        <g id="dog-house" transform="translate(-40.000000, -776.000000)" filter="url(#filter-1)">
            <g transform="translate(40.000000, 776.000000)">
                <path d="M34.043112,15.483024 L19.69236,0.919512 C19.116504,0.33516 18.315936,0 17.496,0 C16.676064,0 15.875496,0.33516 15.299712,0.919512 L0.948888,15.483024 C-0.24516,16.69464 -0.23256,18.653616 0.97704,19.849896 C1.563552,20.429928 2.34036,20.746224 3.165048,20.741112 C3.717504,20.737512 4.246416,20.58912 4.709736,20.315232 L4.709736,35.784 C4.709736,36.380448 5.193288,36.864 5.789736,36.864 L29.202192,36.864 C29.79864,36.864 30.282192,36.380448 30.282192,35.784 L30.282192,20.31552 C30.751128,20.592792 31.287096,20.741184 31.846824,20.741184 L31.846896,20.741184 C32.663808,20.74104 33.433704,20.4246 34.014888,19.849824 C35.224488,18.653616 35.23716,16.69464 34.043112,15.483024 Z M20.88,34.704 L14.112,34.704 L14.112,29.509056 C14.112,28.055952 15.291216,26.873784 16.740648,26.873784 L18.251352,26.873784 C19.700784,26.873784 20.88,28.055952 20.88,29.509056 L20.88,34.704 Z M28.122192,34.704 L23.04,34.704 L23.04,29.509056 C23.04,26.864928 20.891808,24.713784 18.251352,24.713784 L16.740648,24.713784 C14.100192,24.713784 11.952,26.864928 11.952,29.509056 L11.952,34.704 L6.869808,34.704 L6.869808,18.270792 L11.527128,13.544424 L17.496,7.487064 L23.464872,13.544424 L28.122192,18.270792 L28.122192,34.704 Z M32.49612,18.313992 C32.321952,18.486288 32.091264,18.581184 31.846752,18.581184 C31.597704,18.581184 31.364064,18.483264 31.188888,18.305568 L18.265248,5.190336 C18.06228,4.984344 17.785224,4.868352 17.496,4.868352 C17.206776,4.868352 16.92972,4.984272 16.726752,5.190336 L3.80304,18.305568 C3.629448,18.48168 3.397968,18.5796 3.151152,18.581184 C3.149136,18.581184 3.147048,18.581184 3.145032,18.581184 C2.90052,18.581184 2.670192,18.486432 2.49588,18.314064 C2.131632,17.953848 2.127816,17.363952 2.487384,16.999056 L16.838208,2.435616 C17.010792,2.260512 17.250552,2.16 17.496,2.16 C17.741448,2.16 17.981208,2.260512 18.153792,2.435616 L32.504544,16.999128 C32.864112,17.363952 32.860296,17.953848 32.49612,18.313992 Z" id="Shape" fill="#000000" fill-rule="nonzero"></path>
                <path d="M24.6258,17.847432 C24.6258,16.160472 23.254992,14.78808 21.569976,14.78808 C20.264616,14.78808 19.14768,15.611904 18.710712,16.767432 L16.281216,16.767432 C15.844248,15.611904 14.727312,14.78808 13.421952,14.78808 C11.737008,14.78808 10.366128,16.160544 10.366128,17.847432 C10.366128,18.407376 10.522584,18.953064 10.805832,19.424736 C10.520496,19.894896 10.366128,20.439144 10.366128,21.010608 C10.366128,22.697568 11.737008,24.06996 13.421952,24.06996 C14.727312,24.06996 15.844248,23.246136 16.281216,22.090608 L18.710712,22.090608 C19.14768,23.246136 20.264616,24.06996 21.569976,24.06996 C23.25492,24.06996 24.6258,22.697496 24.6258,21.010608 C24.6258,20.439072 24.471432,19.894896 24.186096,19.424736 C24.469344,18.953064 24.6258,18.407376 24.6258,17.847432 Z M22.107096,20.290896 C22.335048,20.463048 22.4658,20.725344 22.4658,21.010608 C22.4658,21.506544 22.063896,21.90996 21.569976,21.90996 C21.076056,21.910032 20.674152,21.506544 20.674152,21.010608 C20.674152,20.41416 20.1906,19.930608 19.594152,19.930608 L15.397848,19.930608 C14.8014,19.930608 14.317848,20.41416 14.317848,21.010608 C14.317848,21.506544 13.915944,21.90996 13.422024,21.90996 C12.928104,21.90996 12.5262,21.506472 12.5262,21.010608 C12.5262,20.725344 12.656952,20.463048 12.884904,20.290896 C13.155192,20.086776 13.314096,19.767672 13.314096,19.428912 C13.314096,19.090224 13.15512,18.771048 12.884832,18.567 C12.65688,18.39492 12.5262,18.132696 12.5262,17.84736 C12.5262,17.351424 12.928104,16.948008 13.422024,16.948008 C13.916016,16.948008 14.317848,17.351496 14.317848,17.84736 C14.317848,18.443808 14.8014,18.92736 15.397848,18.92736 L19.594152,18.92736 C20.1906,18.92736 20.674152,18.443808 20.674152,17.84736 C20.674152,17.351424 21.076056,16.948008 21.569976,16.948008 C22.063896,16.948008 22.4658,17.351496 22.4658,17.84736 C22.4658,18.132696 22.33512,18.39492 22.107168,18.567 C21.836808,18.771048 21.677904,19.090224 21.677904,19.428912 C21.677904,19.767672 21.836808,20.086776 22.107096,20.290896 Z" id="Shape" fill="#000000" fill-rule="nonzero"></path>
            </g>
        </g>
    </g>
</svg>