<?xml version="1.0" encoding="UTF-8"?>
<svg width="36px" height="35px" viewBox="0 0 36 35" version="1.1" xmlns="http://www.w3.org/2000/svg" xmlns:xlink="http://www.w3.org/1999/xlink">
    <title>pawprint</title>
    <defs>
        <filter id="filter-1">
            <feColorMatrix in="SourceGraphic" type="matrix" values="0 0 0 0 1.000000 0 0 0 0 1.000000 0 0 0 0 1.000000 0 0 0 1.000000 0"></feColorMatrix>
        </filter>
    </defs>
    <g id="Page-1" stroke="none" stroke-width="1" fill="none" fill-rule="evenodd">
        <g id="pawprint" transform="translate(-315.000000, -778.000000)" filter="url(#filter-1)">
            <g transform="translate(315.000000, 778.000000)">
                <g id="XMLID_441_" transform="translate(0.000000, 11.259574)" fill="#000000" fill-rule="nonzero">
                    <path d="M13.5743553,22.7338181 C11.995066,22.7338181 10.4160447,22.1471138 9.21160532,20.972566 C8.64185745,20.4169596 8.18959787,19.7700032 7.86735957,19.0495915 C7.03374894,17.1855957 5.5480883,15.6999351 3.68409255,14.8663245 C2.96368085,14.5441532 2.31672447,14.0918936 1.76111809,13.5220787 C-0.59327234,11.1075032 -0.586034043,7.18555213 1.77727021,4.77928723 C2.73875745,3.80030745 3.96236489,3.17674149 5.31572553,2.97587872 C6.08566596,2.86160745 6.7702883,2.51825745 7.29553404,1.98302553 L7.33628298,1.94187447 C8.80103298,0.477124468 10.8902202,-0.164068085 13.2188745,0.13652234 C15.450683,0.424646809 17.6507234,1.55429043 19.4138521,3.31741915 C21.1769809,5.08054787 22.3066915,7.2805883 22.5947489,9.51239681 C22.8953394,11.8411181 22.2542138,13.9302383 20.7893968,15.3950553 L20.7524011,15.431783 C20.2156277,15.9594415 19.8720096,16.6448011 19.7582745,17.4142723 C19.5580819,18.7685713 18.93465,19.992983 17.9555362,20.9552074 C16.7493543,22.1406128 15.1616872,22.7338181 13.5743553,22.7338181 L13.5743553,22.7338181 Z M12.1315213,2.06934894 C10.8252766,2.06934894 9.63135957,2.49030957 8.75800532,3.36366383 L8.73099574,3.39094149 C7.89617872,4.24164255 6.81740426,4.78572128 5.61082021,4.96480213 C4.69370106,5.10092234 3.8641117,5.52396064 3.21165957,6.18820851 C1.60857766,7.82037766 1.60361809,10.4806532 3.20060106,12.1183851 C3.57833298,12.5057681 4.0171883,12.8127926 4.50490213,13.0309468 C6.82095638,14.0667606 8.6669234,15.9127277 9.70273723,18.2287819 C9.92089149,18.7165628 10.227916,19.1554181 10.6152319,19.533083 C12.253433,21.1305351 14.9141106,21.1251734 16.5462798,19.5212202 C17.2107287,18.8682989 17.633633,18.0381064 17.769284,17.120384 C17.9475606,15.9144032 18.4915053,14.8348915 19.3424074,13.998533 L19.3676745,13.973467 C20.3817734,12.9593681 20.8196234,11.4665362 20.6005979,9.76995957 C20.3690394,7.97647021 19.4426713,6.18988404 17.9920628,4.73927553 C16.2460915,2.99317021 14.0659564,2.06934894 12.1315213,2.06934894 L12.1315213,2.06934894 Z" id="XMLID_273_"></path>
                </g>
                <g id="XMLID_481_" transform="translate(16.085106, 0.000000)" fill="#000000" fill-rule="nonzero">
                    <path d="M4.18400426,10.2229564 C3.02440213,10.2229564 1.98590745,9.81385851 1.21482766,9.04277872 C0.314865957,8.14288404 -0.0919531915,6.87852766 0.0692329787,5.48260851 C0.220365957,4.17361596 0.862697872,2.89364362 1.87793617,1.87840532 C2.89310745,0.863234043 4.17307979,0.220902128 5.48207234,0.0697021277 C6.87805851,-0.0912829787 8.14228085,0.315469149 9.04224255,1.21529681 C9.94220426,2.11525851 10.3490234,3.37961489 10.1879043,4.77553404 C10.0367713,6.0845266 9.39443936,7.36449894 8.37920106,8.37967021 C7.36402979,9.39490851 6.08399043,10.0372404 4.77499787,10.1883734 C4.5750734,10.2114957 4.37782979,10.2229564 4.18400426,10.2229564 L4.18400426,10.2229564 Z M6.06401809,2.04642766 C5.94947872,2.04642766 5.83225851,2.05326383 5.71269255,2.06707021 C4.85240745,2.16639574 3.99540638,2.60431277 3.29965851,3.30006064 C2.60384362,3.99587553 2.1659266,4.8528766 2.06660106,5.7131617 C1.9772617,6.48658723 2.17973298,7.16410532 2.63655,7.62098936 C3.09343404,8.0778734 3.77115319,8.28021064 4.54437766,8.19100532 C5.40466277,8.09167979 6.26166383,7.65376277 6.95747872,6.95794787 C7.65329362,6.26213298 8.09121064,5.40519894 8.19046915,4.54491383 C8.27980851,3.7714883 8.07733723,3.09397021 7.62045319,2.63708617 C7.2342766,2.25084255 6.69026489,2.04642766 6.06401809,2.04642766 L6.06401809,2.04642766 Z" id="XMLID_270_"></path>
                </g>
                <g id="XMLID_483_" transform="translate(2.613830, 0.536170)" fill="#000000" fill-rule="nonzero">
                    <path d="M4.15867021,10.1983596 C2.99900106,10.1983596 1.9605734,9.7892617 1.18949362,9.01824894 C0.289531915,8.11828723 -0.117354255,6.85399787 0.0438319149,5.45807872 C0.194964894,4.14908617 0.837296809,2.86911383 1.85253511,1.85387553 C2.86770638,0.838704255 4.14774574,0.19637234 5.45667128,0.0451723404 C6.85279149,-0.115946809 8.11694681,0.290939362 9.01684149,1.19076702 C9.91680319,2.09072872 10.3236894,3.35508511 10.1625032,4.75100426 C10.0113702,6.05999681 9.3690383,7.33996915 8.3538,8.35514043 C7.33862872,9.37037872 6.05858936,10.0127106 4.74959681,10.1638436 C4.54980638,10.186966 4.35249574,10.1983596 4.15867021,10.1983596 L4.15867021,10.1983596 Z M6.03868404,2.02189787 C5.92414468,2.02189787 5.80692447,2.02873404 5.68735851,2.04254043 C4.8270734,2.14186596 3.97007234,2.57978298 3.27432447,3.27553085 C2.57844255,3.97141277 2.14059255,4.82841383 2.0412,5.68869894 C1.95192766,6.46212447 2.15433191,7.13964255 2.61121596,7.5965266 C3.06803298,8.05334362 3.74541702,8.25594894 4.51904362,8.16647553 C5.37932872,8.06715 6.23632979,7.62923298 6.93214468,6.93341809 C7.62795957,6.23760319 8.0658766,5.38060213 8.16513511,4.52038404 C8.25447447,3.74695851 8.05200319,3.06944043 7.59518617,2.61255638 C7.20894255,2.22631277 6.66493085,2.02189787 6.03868404,2.02189787 Z" id="XMLID_267_"></path>
                </g>
                <g id="XMLID_84_" transform="translate(24.060638, 7.975532)" fill="#000000" fill-rule="nonzero">
                    <path d="M4.19774362,10.2366957 C3.03814149,10.2366957 1.99964681,9.82759787 1.22856702,9.05658511 C0.328605319,8.1566234 -0.0782808511,6.89233404 0.0829053191,5.49641489 C0.234038298,4.18742234 0.876370213,2.90745 1.89160851,1.8922117 C2.90677979,0.877040426 4.18681915,0.234708511 5.4958117,0.0835755319 C6.89159681,-0.0778787234 8.15602021,0.329275532 9.05598191,1.22917021 C9.95594362,2.12906489 10.3628298,3.39342128 10.2016436,4.78934043 C10.0505106,6.09833298 9.40817872,7.37830532 8.39300745,8.39354362 C7.37776915,9.40871489 6.09772979,10.0510468 4.78880426,10.2022468 C4.58887979,10.2252351 4.39156915,10.2366957 4.19774362,10.2366957 L4.19774362,10.2366957 Z M6.07775745,2.06023404 C5.96321809,2.06023404 5.84599787,2.06707021 5.72643191,2.0808766 C4.86614681,2.18020213 4.00914574,2.61811915 3.31333085,3.31393404 C2.61751596,4.00974894 2.17959894,4.86668298 2.0802734,5.72696809 C1.99100106,6.50039362 2.19340532,7.1779117 2.65028936,7.63479574 C3.1071734,8.09167979 3.78482553,8.29428511 4.55811702,8.20474468 C5.41840213,8.10541915 6.27540319,7.66750213 6.97121809,6.97175426 C7.66703298,6.27593936 8.10495,5.4189383 8.20420851,4.55865319 C8.29354787,3.78522766 8.0910766,3.10770957 7.63425957,2.65082553 C7.24801596,2.26458191 6.70407128,2.06023404 6.07775745,2.06023404 L6.07775745,2.06023404 Z" id="XMLID_242_"></path>
                </g>
                <g id="XMLID_3_" transform="translate(23.390426, 21.312766)" fill="#000000" fill-rule="nonzero">
                    <path d="M4.19211383,10.2318032 C3.0325117,10.2318032 1.99401702,9.82270532 1.22293723,9.05169255 C0.322975532,8.15173085 -0.0839106383,6.88744149 0.0772755319,5.49152234 C0.228408511,4.18252979 0.870740426,2.90255745 1.88597872,1.88731915 C2.90115,0.872147872 4.18118936,0.229815957 5.49018191,0.0786829787 C6.88596702,-0.0827042553 8.15039043,0.324382979 9.05035213,1.22427766 C9.95031383,2.12417234 10.3572,3.38852872 10.1960138,4.78444787 C10.0448809,6.09344043 9.40254894,7.37341277 8.38737766,8.38865106 C7.37213936,9.40382234 6.0921,10.0461543 4.78317447,10.1973543 C4.58325,10.2204096 4.38593936,10.2318032 4.19211383,10.2318032 L4.19211383,10.2318032 Z M6.07212766,2.05540851 C5.9575883,2.05540851 5.84036809,2.06224468 5.72080213,2.07605106 C4.86051702,2.1753766 4.00351596,2.61329362 3.30770106,3.30910851 C2.61188617,4.0049234 2.17396915,4.86185745 2.07464362,5.72214255 C1.98537128,6.49556809 2.18777553,7.17308617 2.64465957,7.62997021 C3.1014766,8.08685426 3.77926277,8.28932553 4.55248723,8.19991915 C5.41277234,8.10059362 6.2697734,7.6626766 6.9655883,6.96692872 C7.66140319,6.27111383 8.09932021,5.41411277 8.19857872,4.55382766 C8.28791809,3.78040213 8.08544681,3.10288404 7.62862979,2.646 C7.24238617,2.25975638 6.69844149,2.05540851 6.07212766,2.05540851 L6.07212766,2.05540851 Z" id="XMLID_239_"></path>
                </g>
            </g>
        </g>
    </g>
</svg>