<?xml version="1.0" encoding="UTF-8"?>
<svg width="25px" height="35px" viewBox="0 0 25 35" version="1.1" xmlns="http://www.w3.org/2000/svg" xmlns:xlink="http://www.w3.org/1999/xlink">
    <title>placeholder</title>
    <defs>
        <filter id="filter-1">
            <feColorMatrix in="SourceGraphic" type="matrix" values="0 0 0 0 1.000000 0 0 0 0 1.000000 0 0 0 0 1.000000 0 0 0 1.000000 0"></feColorMatrix>
        </filter>
    </defs>
    <g id="Page-1" stroke="none" stroke-width="1" fill="none" fill-rule="evenodd">
        <g id="placeholder" transform="translate(-183.000000, -778.000000)" filter="url(#filter-1)">
            <g transform="translate(183.000000, 778.000000)">
                <path d="M12.2926829,0 C5.51449756,0 0,5.51449756 0,12.2926829 C0,14.5828098 0.634370732,16.8177561 1.8349561,18.756722 L11.5929561,34.4815902 C11.7798732,34.7828293 12.1091805,34.9658537 12.4633463,34.9658537 C12.466078,34.9658537 12.4687415,34.9658537 12.4714732,34.9658537 C12.8287122,34.9630537 13.1587024,34.774361 13.3422049,34.4678634 L22.8514829,18.5906341 C23.9858244,16.6926439 24.5853659,14.5148585 24.5853659,12.2926829 C24.5853659,5.51449756 19.0708683,0 12.2926829,0 Z M21.0932878,17.5387902 L12.4478439,31.973678 L3.57628293,17.6772878 C2.5769561,16.0633951 2.03512195,14.2014634 2.03512195,12.2926829 C2.03512195,6.64419512 6.64419512,2.03512195 12.2926829,2.03512195 C17.9411707,2.03512195 22.5434146,6.64419512 22.5434146,12.2926829 C22.5434146,14.1448488 22.0372976,15.9591805 21.0932878,17.5387902 Z" id="Shape" fill="#000000" fill-rule="nonzero"></path>
                <path d="M12.2926829,6.14634146 C8.90359024,6.14634146 6.14634146,8.90359024 6.14634146,12.2926829 C6.14634146,15.6601268 8.85872195,18.4390244 12.2926829,18.4390244 C15.7689854,18.4390244 18.4390244,15.6231122 18.4390244,12.2926829 C18.4390244,8.90359024 15.6817756,6.14634146 12.2926829,6.14634146 Z M12.2926829,16.4039024 C10.0214732,16.4039024 8.18146341,14.5577463 8.18146341,12.2926829 C8.18146341,10.0332878 10.0332878,8.18146341 12.2926829,8.18146341 C14.552078,8.18146341 16.3970732,10.0332878 16.3970732,12.2926829 C16.3970732,14.5246927 14.5998829,16.4039024 12.2926829,16.4039024 Z" id="Shape" fill="#000000" fill-rule="nonzero"></path>
            </g>
        </g>
    </g>
</svg>