<?xml version="1.0" encoding="UTF-8"?>
<svg width="20px" height="20px" viewBox="0 0 20 20" version="1.1" xmlns="http://www.w3.org/2000/svg" xmlns:xlink="http://www.w3.org/1999/xlink">
    <title>search</title>
    <defs>
        <filter id="filter-1">
            <feColorMatrix in="SourceGraphic" type="matrix" values="0 0 0 0 1.000000 0 0 0 0 1.000000 0 0 0 0 1.000000 0 0 0 1.000000 0"></feColorMatrix>
        </filter>
    </defs>
    <g id="Page-1" stroke="none" stroke-width="1" fill="none" fill-rule="evenodd">
        <g id="search" transform="translate(-30.000000, -30.000000)" filter="url(#filter-1)">
            <g transform="translate(30.000000, 30.000000)">
                <path d="M19.2509673,18.11328 L14.5179927,13.1907491 C15.7349236,11.7441164 16.4016873,9.92395636 16.4016873,8.02909091 C16.4016873,3.60192 12.7997673,0 8.37259636,0 C3.94542545,0 0.343505455,3.60192 0.343505455,8.02909091 C0.343505455,12.4562618 3.94542545,16.0581818 8.37259636,16.0581818 C10.0346182,16.0581818 11.6184436,15.5568873 12.9725673,14.6052655 L17.7414982,19.5651491 C17.9408291,19.77216 18.2089309,19.8863127 18.4962327,19.8863127 C18.7681745,19.8863127 19.0261527,19.7826327 19.2219927,19.5941236 C19.6381091,19.1937164 19.6513745,18.5297455 19.2509673,18.11328 Z M8.37259636,2.09454545 C11.6449745,2.09454545 14.3071418,4.75671273 14.3071418,8.02909091 C14.3071418,11.3014691 11.6449745,13.9636364 8.37259636,13.9636364 C5.10021818,13.9636364 2.43805091,11.3014691 2.43805091,8.02909091 C2.43805091,4.75671273 5.10021818,2.09454545 8.37259636,2.09454545 Z" id="Shape" fill="#000000" fill-rule="nonzero"></path>
            </g>
        </g>
    </g>
</svg>